<?xml version="1.0" encoding="utf-8"?>
<!-- Generator: Adobe Illustrator 24.1.0, SVG Export Plug-In . SVG Version: 6.00 Build 0)  -->
<svg version="1.1" xmlns="http://www.w3.org/2000/svg" xmlns:xlink="http://www.w3.org/1999/xlink" x="0px" y="0px"
	 viewBox="0 0 421.49 412.18" style="enable-background:new 0 0 421.49 412.18;" xml:space="preserve">
<style type="text/css">
	.st0{opacity:0.17;fill:#3AD07A;}
	.st1{fill:#4AF8C4;}
	.st2{fill:#3AD07A;stroke:#3AAD7A;stroke-miterlimit:10;}
	.st3{fill:#FFFFFF;}
	.st4{fill:#79D0C1;}
	.st5{opacity:0.54;fill:#B1D0B9;}
	.st6{fill:none;stroke:#8E49A5;stroke-miterlimit:10;}
	.st7{fill:#B1D0B9;}
	.st8{opacity:0.93;fill:#B1B5B9;}
	.st9{fill:#FDC153;}
	.st10{fill:#FCF6DE;}
	.st11{fill:#FFD359;}
	.st12{fill:#FF6545;}
	.st13{fill:#F6D4FA;}
	.st14{fill:#78457E;}
	.st15{fill:#572F63;}
	.st16{fill:#FBBA99;}
	.st17{fill:#FFAF2E;}
	.st18{fill:#FED45A;}
	.st19{fill:#FD6142;}
	.st20{fill:#2B1730;}
	.st21{fill:none;stroke:#AD6BB5;stroke-linecap:round;stroke-miterlimit:10;}
	.st22{fill:#71BD9F;}
	.st23{fill:none;stroke:#83DBB8;stroke-width:0.7;stroke-linecap:round;stroke-miterlimit:10;}
	.st24{fill:#412444;}
	.st25{fill:#FB5F50;}
	.st26{fill:none;stroke:#412444;stroke-width:0.6;stroke-linecap:round;stroke-miterlimit:10;}
	.st27{fill:#FB8378;}
	.st28{fill:none;stroke:#412444;stroke-linecap:round;stroke-miterlimit:10;}
	.st29{fill:#2CAB79;}
	.st30{fill:#FFFFFF;stroke:#A169B0;stroke-linecap:round;stroke-linejoin:round;stroke-miterlimit:10;}
	.st31{fill:#A169B0;}
</style>
<g id="BACKGROUND">
</g>
<g id="OBJECTS">
	<path class="st0" d="M10.78,166.22c2.37-32.42,23.07-51.38,76.54-62.91c53.48-11.53,33.55-74.45,83.88-91.22
		s63.96,28.31,91.22,45.09S357,39.64,389.31,89.68c32.31,50.04-62.91,91.22-36.7,144.7c26.21,53.48,0,128.97-55.57,158.33
		c-24.91,13.16-51.38,7.34-88.08-1.05c-36.7-8.39-67.11,15.73-103.81-2.1c-36.7-17.83-15.73-105.9-30.41-136.31
		C60.07,222.84,7.64,209.21,10.78,166.22z"/>
	<g>
		<path class="st1" d="M414.48,328.56v0.03c-0.01,1.64-1.4,2.95-3.05,2.95h-59.87v-37.73c0.28-0.01,0.57-0.02,0.86-0.02
			c6.16,0,11.76,2.84,15.9,7.46c2.24-1.05,4.67-1.65,7.23-1.65c8.19,0,15.19,5.95,18.07,14.37c2.01-1.28,4.3-2.01,6.74-2.01
			C408.15,311.96,414.48,319.39,414.48,328.56z"/>
		<path class="st1" d="M31.48,314.76c-1.55,0-2.87-1.38-2.87-3.12c0-0.01,0-0.02,0-0.03c0-9.67,5.96-17.52,13.32-17.52
			c2.3,0,4.46,0.77,6.35,2.12c2.72-8.88,9.33-15.16,17.06-15.16c2.41,0,4.71,0.63,6.82,1.74c3.91-4.87,9.19-7.87,15-7.87
			c7.92,0,14.85,5.55,18.67,13.85c3.36-4.74,8.13-7.72,13.44-7.72c10.16,0,18.39,10.83,18.39,24.19c0,2.5-0.29,4.92-0.83,7.19
			c-0.33,1.39-1.48,2.34-2.77,2.34H31.48z"/>
		<path class="st1" d="M173.76,81.29c1.65,0,3.04-1.31,3.04-2.96c0-0.01,0-0.02,0-0.03c0-9.16-6.32-16.59-14.12-16.59
			c-2.44,0-4.73,0.73-6.73,2.01c-2.88-8.42-9.88-14.37-18.08-14.37c-2.56,0-4.99,0.59-7.23,1.65c-4.14-4.62-9.74-7.45-15.9-7.45
			c-8.39,0-15.74,5.26-19.79,13.12c-3.56-4.49-8.62-7.31-14.25-7.31c-10.77,0-19.49,10.26-19.49,22.91c0,2.37,0.31,4.66,0.88,6.81
			c0.35,1.32,1.57,2.21,2.93,2.21H173.76z"/>
	</g>
	<ellipse class="st2" cx="254.99" cy="360.78" rx="126.42" ry="12"/>
	<g>
		<path class="st3" d="M351.56,92.01V344.7c0,6.47-5.24,11.72-11.71,11.72H207.39c-6.47,0-11.71-5.25-11.71-11.72V92.01
			c0-1.41,0.25-2.77,0.71-4.02c1.64-4.49,5.95-7.69,11-7.69h132.46c5.05,0,9.36,3.2,11,7.69C351.31,89.24,351.56,90.6,351.56,92.01z
			"/>
		<g>
			<path class="st4" d="M350.85,87.99c-1.64-4.49-5.95-7.69-11-7.69h-33.21c0.04-0.15,0.06-0.23,0.06-0.23l-66.17,0.06
				c0,0,0.01,0.07,0.03,0.17h-33.18c-5.05,0-9.36,3.2-11,7.69h47.8c4.01,5.48,12.26,11.71,28.97,11.18
				c16.03-0.51,24.55-6.16,28.99-11.18H350.85z"/>
			<path class="st3" d="M276.76,88.98c0,1.74-1.41,3.15-3.15,3.15s-3.15-1.41-3.15-3.15c0-1.74,1.41-3.15,3.15-3.15
				S276.76,87.24,276.76,88.98z"/>
		</g>
		<g>
			<path class="st4" d="M351.56,328.46v16.24c0,6.47-5.24,11.72-11.71,11.72H207.39c-6.47,0-11.71-5.25-11.71-11.72v-16.24H351.56z"
				/>
			<path class="st2" d="M286.55,347.62h-25.86c-3.86,0-6.99-3.13-6.99-6.99l0,0c0-3.86,3.13-6.99,6.99-6.99h25.86
				c3.86,0,6.99,3.13,6.99,6.99l0,0C293.54,344.49,290.41,347.62,286.55,347.62z"/>
		</g>
		<path class="st5" d="M211.29,262.8c-3.79,5.24-10.85,13.4-15.61,18.79V161.01c2.01,2.21,15.78,18.02,11.88,31.43
			c-4.19,14.44-3.26,30.29,0.93,39.14C212.69,240.44,217.35,254.42,211.29,262.8z"/>
		<path class="st6" d="M351.56,92.01V344.7c0,6.47-5.24,11.72-11.71,11.72H207.39c-6.47,0-11.71-5.25-11.71-11.72V92.01
			c0-1.41,0.25-2.77,0.71-4.02c1.64-4.49,5.95-7.69,11-7.69h132.46c5.05,0,9.36,3.2,11,7.69C351.31,89.24,351.56,90.6,351.56,92.01z
			"/>
		<g>
			<path class="st7" d="M331.11,250.69c0,4.05-27.83,7.34-54.76,7.34c-26.93,0-48.76-3.29-48.76-7.34c0-4.05,21.83-7.34,48.76-7.34
				C303.28,243.35,331.11,246.63,331.11,250.69z"/>
			<path class="st5" d="M334.95,228.36l0.03,0.14l-53.54,14.89c-1.67-0.03-3.36-0.04-5.08-0.04c-12.59,0-24.09,0.72-32.74,1.9
				l-10.75-38.64l7.68-9.01l-0.97-3.49l5.18-1.44l23.64-27.73l35.83,11.19l2.01-0.57l0.37,1.31l15.62,4.88l-0.23,0.06l0.03,0.11
				l0.2-0.17l12.99,46.68L334.95,228.36z"/>
			<path class="st8" d="M281.44,243.39l-35.58,9.9l-2.24-8.04c8.65-1.18,20.15-1.9,32.74-1.9
				C278.08,243.35,279.77,243.36,281.44,243.39z"/>
			<g>
				
					<rect x="232.55" y="189.59" transform="matrix(0.9634 -0.268 0.268 0.9634 -47.1115 82.5559)" class="st9" width="92.51" height="48.46"/>
				<polygon class="st9" points="227.75,202.88 263.27,161.21 317.1,178.02 				"/>
				
					<rect x="237.48" y="180.52" transform="matrix(0.9634 -0.268 0.268 0.9634 -42.7239 80.1219)" class="st10" width="69.2" height="32.02"/>
				<polygon class="st11" points="278.85,211.27 240.73,249.56 227.75,202.88 				"/>
				<polygon class="st11" points="277.67,211.59 330.09,224.7 317.1,178.02 				"/>
				<g>
					<circle class="st12" cx="309.09" cy="176.88" r="11.91"/>
					<g>
						<path class="st3" d="M304.97,180h2.89v-5.71h-2.44v-1.85c1.57-0.24,2.33-0.52,3.24-1.08h2.19V180h2.37v2.4h-8.25V180z"/>
					</g>
				</g>
			</g>
		</g>
		<g>
			<path class="st13" d="M232.49,169.13c0,1.93-1.56,3.5-3.5,3.5c-1.93,0-3.5-1.56-3.5-3.5c0-1.93,1.56-3.5,3.5-3.5
				C230.93,165.64,232.49,167.2,232.49,169.13z"/>
			<path class="st13" d="M294.9,155.25c0,2.74-2.22,4.95-4.95,4.95c-2.74,0-4.95-2.22-4.95-4.95c0-2.74,2.22-4.95,4.95-4.95
				C292.69,150.3,294.9,152.51,294.9,155.25z"/>
			<path class="st13" d="M264.83,288.65c0,3.7-3,6.69-6.69,6.69c-3.7,0-6.69-3-6.69-6.69c0-3.7,3-6.69,6.69-6.69
				C261.83,281.96,264.83,284.96,264.83,288.65z"/>
			<polygon class="st14" points="250.58,140.46 252.37,134.23 254.17,140.46 258.31,142.25 254.17,144.04 252.37,150.27 
				250.58,144.04 246.44,142.25 			"/>
			<polygon class="st14" points="316.14,274.92 317.94,268.69 319.73,274.92 323.87,276.71 319.73,278.51 317.94,284.74 
				316.14,278.51 312,276.71 			"/>
		</g>
	</g>
	<g>
		<g>
			<g>
				<path class="st15" d="M167.89,347.97c0,0-15.73,5.94-16.08,8.04c-0.11,0.69-0.14,1.56-0.11,2.42c0.05,1.96,1.65,3.52,3.61,3.52
					h24.14c1.83,0,3.36-1.37,3.59-3.19c0.25-2.06,0.44-4.52,0.06-5.38c-0.7-1.57-3.67-5.42-3.67-5.42H167.89z"/>
				<path class="st16" d="M179.42,347.97c0,0-1.22,1.75-5.59,1.4c-4.37-0.35-5.94-1.4-5.94-1.4v-8.91h11.53V347.97z"/>
				<path class="st17" d="M154.78,248.71l9.09,90.52c0,0,2.8,2.97,8.91,2.97s9.61-3.32,9.61-3.32l-8.39-87.9L154.78,248.71z"/>
			</g>
			<g>
				<path class="st15" d="M204.07,328.28c0,0-6.7,15.42-5.44,17.13c0.01,0.02,0.03,0.03,0.04,0.05c1.89,2.51,5.62,2.65,7.81,0.4
					l14.68-15.1c1.88-1.93,1.97-4.98,0.21-7.03c-1.06-1.23-2.15-2.34-2.81-2.58c-1.62-0.59-6.44-1.14-6.44-1.14L204.07,328.28z"/>
				<path class="st16" d="M212.1,320.01c0,0,0.4,2.1-2.89,4.98c-3.3,2.89-5.14,3.29-5.14,3.29l-6.39-6.21l8.04-8.27L212.1,320.01z"
					/>
				<path class="st18" d="M168.41,251.15c0,0-20.04,36.35-10.72,45.67c9.32,9.32,39.61,28.43,39.61,28.43s2.91-1.57,6.76-6.29
					c3.84-4.72,3.84-6.47,3.84-6.47s-15.03-18.35-17.48-20.1c-2.45-1.75-8.91-4.54-8.91-4.54s13.81-16.08,17.65-24.12
					c3.84-8.04-3.84-15.03-3.84-15.03L168.41,251.15z"/>
			</g>
		</g>
		<g>
			<g>
				<path class="st3" d="M188.28,249.06c-0.18,0.81-0.39,1.29-0.64,1.4c-3.67,1.57-22.89,0.34-22.89,0.34v-0.61
					c0.25,0.04,0.41,0.07,0.48,0.08l0.04,0.01c0,0,2.8-11.07,4.87-23.39c3.67-1.45,9.02-4.15,14.03-7.58l1.02,13.84
					c0,0-1.11,11.6,2.89,15.71C188.14,248.93,188.21,249,188.28,249.06z"/>
				<path class="st3" d="M187.29,165.44c-1.08,4.03-2.45,15.15-2.45,18.96c0,3.99-4.11,15.94-12.54,23.15
					c0.09-3.64-0.11-6.82-0.74-9.17c-3.49-13.11-0.35-27.43,2.36-32.94c0,0,1.75,1.83,6.56,2.01
					C185.28,167.62,187.29,165.44,187.29,165.44z"/>
			</g>
			<g>
				<path class="st16" d="M113.53,227.37c0,0,6.04,0.14,6.18-0.66c0.14-0.79-0.9-3.38-0.9-3.38S115.29,221.46,113.53,227.37z"/>
				<path class="st14" d="M171.56,198.38c0.63,2.35,0.83,5.53,0.74,9.17c-0.15,5.79-1.05,12.74-2.16,19.34
					c-2.07,12.32-4.87,23.39-4.87,23.39l-0.04-0.01c-0.07-0.01-0.23-0.04-0.48-0.08c-1.98-0.32-9.11-1.64-12.14-3.88
					c-0.68-0.49-1.15-1.03-1.32-1.62c-0.89-3.12,1.12-7.24,3.03-12.06c0.34-0.85,0.67-1.73,0.99-2.62c1.08-3.07,1.8-9.54,2.23-15.09
					c0.41-5.18,0.57-9.55,0.57-9.55s-1.72,4.86-7.99,11.86c-0.66,0.74-1.38,1.5-2.15,2.29c-1.84,1.88-4.14,3.36-6.59,4.52
					c-8.25,3.91-18.22,4.22-18.22,4.22s-1.23-9.61-0.88-11.01c0.35-1.4,5.24-4.19,13.28-6.29c8.04-2.1,14.68-21.32,22.72-32.5
					c8.04-11.19,15.64-13.02,15.64-13.02C171.21,170.95,168.07,185.27,171.56,198.38z"/>
				<path class="st19" d="M164.75,255.52c-0.7,0.35-13.63-2.09-13.81-3.14c-0.15-0.92,1.31-5.07,1.67-6.07
					c3.41,2.52,11.99,3.87,12.62,3.96l0.04,0.01C165.27,250.28,165.45,255.17,164.75,255.52z"/>
				<path class="st19" d="M122.28,218.76c0,0-4.08-0.47-4.08,0.93c0,1.4,0.23,7.46,1.17,7.57s3.74-0.01,3.74-0.01L122.28,218.76z"/>
				<g>
					<g>
						
							<rect x="98.39" y="209.36" transform="matrix(0.5555 -0.8315 0.8315 0.5555 -137.7453 185.0041)" class="st15" width="11.53" height="23.95"/>
						
							<rect x="99.76" y="212.21" transform="matrix(0.5555 -0.8315 0.8315 0.5555 -137.7452 185.0029)" class="st3" width="8.79" height="18.25"/>
						<path class="st20" d="M113.84,226.87c0,0.42-0.34,0.76-0.76,0.76c-0.42,0-0.76-0.34-0.76-0.76c0-0.42,0.34-0.76,0.76-0.76
							C113.5,226.11,113.84,226.46,113.84,226.87z"/>
					</g>
					<path class="st16" d="M118.25,220.46c0,0-6.84-1.53-6.65,0.23c0.19,1.76,6.78,2.83,6.78,2.83L118.25,220.46z"/>
				</g>
			</g>
			<g>
				<g>
					<path class="st14" d="M209.83,249.76c-1.22,4.37-1.74,4.54-1.74,4.54s-14.68-1.05-19.4-4.54c-0.14-0.1-0.28-0.22-0.41-0.35
						c-0.07-0.06-0.14-0.13-0.2-0.2c-4-4.11-2.89-15.71-2.89-15.71l-1.02-13.84c1.69-1.15,3.34-2.39,4.87-3.7
						c2.17-1.84,4.11-3.82,5.59-5.87c1.62-2.26,3.13-6.91,4.43-10.9c0.07,1.72,1.08,24.21,3.09,29.25
						C204.24,233.68,211.06,245.39,209.83,249.76z"/>
					<path class="st19" d="M208.09,253.95c0,0-2.27,6.29-3.32,6.64c-1.05,0.35-17.3-5.59-18.53-6.29c-1.22-0.7,1.23-5.59,1.23-5.59
						l0.61,0.15c0.18,0.2,0.39,0.39,0.61,0.55C193.41,252.9,208.09,253.95,208.09,253.95z"/>
				</g>
				<path class="st16" d="M136.96,227.56c0,0-10.66,0-10.66,1.22s3.67,1.92,3.67,1.92s-6.47,0.7-6.47,1.57c0,0.87,4.19,0.7,4.19,0.7
					s-4.72,0.52-4.89,1.57c-0.17,1.05,6.47,0.7,6.47,0.7s-3.84,1.05-3.84,1.92c0,0.87,4.19-0.17,4.19-0.17s-1.92,0.87-1.92,1.57
					c0,0.7,9.44-1.75,11.71-4.19C141.68,231.93,136.96,227.56,136.96,227.56z"/>
				<path class="st14" d="M199.17,200.06c-1.3,3.99-2.92,7.42-4.54,9.68c-1.48,2.05-3.42,4.03-5.59,5.87
					c-1.53,1.31-3.18,2.55-4.87,3.7c-5.01,3.43-10.36,6.13-14.03,7.58c-1.85,0.74-3.27,1.16-3.99,1.2c-0.37,0.02-0.83,0.1-1.34,0.24
					c-2.61,0.66-6.8,2.62-10.49,4.3c-2.04,0.93-3.92,1.78-5.3,2.27c-4.37,1.57-5.24-1.4-6.99-5.42c-0.9-2.07-0.93-3.94-0.65-5.44
					c0.27-1.41,0.81-2.5,1.17-3.12c0.89-1.53,3.66-2.5,7.57-3.69c2.17-0.66,4.69-1.39,7.42-2.31c2.31-0.78,4.77-1.7,7.31-2.85
					c0.77-0.35,1.55-0.72,2.34-1.11c1.85-0.92,3.55-2.09,5.11-3.41c8.43-7.21,12.54-19.16,12.54-23.15c0-3.81,1.37-14.93,2.45-18.96
					c0.02-0.08,0.04-0.15,0.06-0.22v-0.01c0.24-0.82,0.45-1.29,0.64-1.26C202.99,166.25,203.61,186.42,199.17,200.06z"/>
				<path class="st21" d="M198.4,202.24c-1.14,3.05-2.46,5.66-3.78,7.5c-1.48,2.05-3.42,4.03-5.59,5.87
					c-1.53,1.31-3.18,2.55-4.87,3.7"/>
				<path class="st19" d="M141.85,222.58c0,0-5.71,1.89-5.36,3.41s2.45,9.9,3.73,9.9c1.28,0,4.43-1.51,4.43-1.51L141.85,222.58z"/>
			</g>
		</g>
		<g>
			<path class="st16" d="M187.29,143.59v21.95c0,0-2.01,2.07-6.81,1.91c-4.81-0.17-6.56-1.91-6.56-1.91v-21.95H187.29z"/>
			<path class="st16" d="M187.64,136.43c0,0.3,0,0.61-0.02,0.92c-0.01,0.44-0.02,0.88-0.05,1.32c0,0.01,0,0.02,0,0.02
				c-0.02,0.34-0.04,0.67-0.07,1.01c-0.07,0.96-0.18,1.9-0.32,2.81c-0.04,0.25-0.08,0.51-0.13,0.76c-0.01,0.08-0.02,0.17-0.04,0.25
				c0,0.02-0.01,0.04-0.01,0.07c-0.01,0.06-0.02,0.12-0.04,0.18c-0.05,0.29-0.11,0.58-0.17,0.87c0,0,0,0-0.01,0
				c-0.76,3.54-2,6.69-3.6,9.19c-0.22,0.35-0.45,0.69-0.69,1.01c-0.78,1.09-1.65,2.04-2.57,2.81c-1.79,1.49-3.79,2.33-5.91,2.33
				h-0.09c-2.01-0.02-3.92-0.8-5.63-2.17c-4.5-3.6-7.67-11.3-7.89-20.32c-0.02-0.35-0.02-0.71-0.02-1.06c0-2.63,0.12-5.17,0.41-7.53
				c0.16-1.33,0.38-2.6,0.65-3.82c1.62-7.28,5.32-12.22,12.57-12.22c10.22,0,12.81,6.72,13.44,16.04
				C187.61,131.26,187.64,133.8,187.64,136.43z"/>
			<g>
				<path class="st22" d="M188.63,128.9H159.6c0.13-1.09,0.29-2.14,0.5-3.15c0.05-0.28,0.11-0.56,0.17-0.84
					c0.01-0.05,0.02-0.11,0.03-0.17c1.76-7.93,5.79-13.31,13.69-13.31C185.13,111.43,187.95,118.74,188.63,128.9z"/>
				<path class="st23" d="M180.21,124.08c0,0,2.79-0.36,2.79,4.58"/>
				<path class="st24" d="M175.31,117.1h-0.99c-3.06,0-5.53,2.48-5.53,5.53v1.69h12.05v-1.69
					C180.85,119.57,178.37,117.1,175.31,117.1z"/>
			</g>
			<path class="st16" d="M192.88,141.18c-0.11,2.76-3.14,3.53-5.36,3.53c-0.08,0-0.16,0-0.23-0.01c-0.18,0-0.35-0.02-0.5-0.06
				c0.06-0.29,0.12-0.58,0.17-0.87c0.02-0.06,0.03-0.12,0.03-0.18c0.01-0.02,0.02-0.05,0.02-0.07c0.02-0.08,0.03-0.17,0.04-0.25
				c0.05-0.25,0.09-0.5,0.13-0.76c0.14-0.91,0.25-1.85,0.32-2.81c0.03-0.33,0.05-0.67,0.07-1.01c0,0,0-0.01,0-0.02
				c0.03-0.43,0.04-0.88,0.05-1.32c0.52-0.24,1.1-0.37,1.71-0.37C191.55,136.98,193,138.41,192.88,141.18z"/>
			<path class="st16" d="M156.27,141.12c0.09,2.26,2.57,2.89,4.38,2.89c0.23,0,0.43-0.02,0.6-0.06c-0.4-1.87-0.64-3.87-0.68-5.96
				c-0.43-0.19-0.9-0.3-1.4-0.3C157.36,137.68,156.17,138.85,156.27,141.12z"/>
			<path class="st24" d="M165.26,128.9c-0.95,6.75-4.56,8.46-4.86,8.59c-0.02-0.35-0.02-0.71-0.02-1.06c0-2.63,0.12-5.16,0.41-7.53
				H165.26z"/>
			<path class="st24" d="M187.64,136.42c0,0.3,0,0.62-0.02,0.92c-0.02,0.89-0.06,1.78-0.14,2.65c-0.06-0.02-0.12-0.06-0.19-0.09
				c-4.8-2.41-4.89-10.87-4.89-10.87l5.05-0.14C187.61,131.26,187.64,133.79,187.64,136.42z"/>
			<path class="st25" d="M182.49,154.84c-0.05,0.18-0.11,0.38-0.18,0.58c-2.2,6.48-6.19,7.27-8.39,7.15v-2.59h0.09
				c2.12,0,4.12-0.84,5.91-2.33C180.84,156.88,181.71,155.93,182.49,154.84z"/>
			<g>
				<path class="st26" d="M165.68,137.34c0,0-0.93,3.37,1.48,3.2c2.41-0.17,1.79-3.14,1.79-3.14"/>
				<path class="st26" d="M174.6,137.34c0,0-0.93,3.37,1.48,3.2c2.41-0.17,1.79-3.14,1.79-3.14"/>
				<path class="st26" d="M171.65,136.34c0,0-0.02,2.78-0.44,5.14c-0.29,1.61-1.11,2.13-0.96,3.15c0.15,1.02,2.62,0.83,2.62,0.83"/>
				<path class="st26" d="M168.83,147.62c0,0-0.63,3.48,3.15,3.24c3.78-0.25,2.94-3.48,2.94-3.48"/>
				<ellipse class="st27" cx="165.53" cy="145.21" rx="1.66" ry="1.58"/>
				<path class="st27" d="M181.39,145.21c0,0.87-0.74,1.58-1.66,1.58c-0.92,0-1.66-0.71-1.66-1.58c0-0.87,0.74-1.58,1.66-1.58
					C180.65,143.64,181.39,144.34,181.39,145.21z"/>
				<path class="st27" d="M179.92,157.65c-1.79,1.49-3.79,2.33-5.91,2.33c-2.04,0-3.98-0.78-5.72-2.17
					C170.51,156.83,175.17,155.41,179.92,157.65z"/>
				<path class="st28" d="M164.69,133.88c0,0,2.45-1.66,4.89,0"/>
				<path class="st28" d="M173.83,133.82c0,0,2.45-1.66,4.89,0"/>
			</g>
			<path class="st29" d="M194.05,144.44c-1.21,2.63-4.13,6.53-6.76,8.55v-8.29c0.07,0.01,0.15,0.01,0.23,0.01
				c2.22,0,5.25-0.77,5.36-3.53c0.12-2.77-1.33-4.2-3.55-4.2c-0.61,0-1.19,0.13-1.71,0.37c0.02-0.31,0.02-0.62,0.02-0.92
				c0-2.63-0.03-5.17-0.19-7.53C187.45,128.9,196.03,140.13,194.05,144.44z"/>
		</g>
	</g>
	<g>
		<path class="st30" d="M83.66,162.16c0-12.95,12.86-23.44,28.72-23.44c15.86,0,28.72,10.49,28.72,23.44s-12.86,23.44-28.72,23.44
			c-3.17,0-6.21-0.44-9.06-1.21c-0.21,1.4-0.86,6.87,0.75,11.3C104.07,195.7,83.66,182.82,83.66,162.16z"/>
		<g>
			<polygon class="st9" points="124.81,170.59 97.53,171.64 97.03,155.79 124.31,154.74 			"/>
			<polygon class="st11" points="111.11,162.38 97.53,171.64 97.03,155.79 			"/>
			<polygon class="st11" points="110.75,162.4 124.88,170.59 124.39,154.74 			"/>
		</g>
		<g>
			<path class="st12" d="M128.1,153.83c0,2.67-2.16,4.83-4.83,4.83c-2.67,0-4.83-2.16-4.83-4.83c0-2.67,2.16-4.83,4.83-4.83
				C125.94,149,128.1,151.16,128.1,153.83z"/>
			<g>
				<path class="st3" d="M121.6,155.1h1.17v-2.32h-0.99v-0.75c0.64-0.1,0.95-0.21,1.31-0.44h0.89v3.5h0.96v0.98h-3.35V155.1z"/>
			</g>
		</g>
	</g>
	<g>
		<g>
			<polygon class="st31" points="155.74,313.6 150.79,314.15 150.54,311.58 155.4,311.01 			"/>
			<polygon class="st31" points="144.83,314.6 139.86,314.8 139.78,312.27 144.68,312.05 			"/>
			<polygon class="st31" points="133.88,314.84 128.91,314.7 129.01,312.23 133.91,312.34 			"/>
			<polygon class="st31" points="122.94,314.33 117.99,313.83 118.26,311.43 123.14,311.89 			"/>
			<polygon class="st31" points="112.07,313.01 107.16,312.13 107.62,309.82 112.44,310.66 			"/>
			<polygon class="st31" points="101.32,310.84 96.51,309.55 97.14,307.34 101.87,308.58 			"/>
			<polygon class="st31" points="90.8,307.74 86.12,306.02 86.94,303.93 91.53,305.6 			"/>
			<polygon class="st31" points="80.61,303.68 76.13,301.5 77.12,299.55 81.53,301.67 			"/>
			<polygon class="st31" points="70.88,298.61 66.65,295.97 67.81,294.19 71.97,296.75 			"/>
			<polygon class="st31" points="61.74,292.53 57.82,289.44 59.14,287.84 63,290.85 			"/>
			<polygon class="st31" points="53.33,285.49 49.77,281.99 51.21,280.58 54.72,283.99 			"/>
			<polygon class="st31" points="45.73,277.57 42.57,273.71 44.11,272.5 47.23,276.27 			"/>
			<polygon class="st31" points="39.02,268.89 36.28,264.74 37.88,263.72 40.6,267.79 			"/>
			<polygon class="st31" points="33.23,259.6 30.89,255.2 32.53,254.37 34.86,258.68 			"/>
			<polygon class="st31" points="28.31,249.81 26.36,245.24 28.02,244.57 29.97,249.07 			"/>
			<polygon class="st31" points="24.24,239.67 22.65,234.97 24.29,234.44 25.89,239.08 			"/>
			<polygon class="st31" points="20.98,229.23 19.83,224.38 21.46,224.03 22.62,228.8 			"/>
			<polygon class="st31" points="18.76,218.5 18.15,213.55 19.76,213.39 20.38,218.25 			"/>
			<polygon class="st31" points="17.76,207.58 17.74,202.6 19.3,202.63 19.35,207.53 			"/>
			<polygon class="st31" points="18.09,196.63 18.68,191.68 20.17,191.9 19.61,196.76 			"/>
			<polygon class="st31" points="19.76,185.8 20.96,180.96 22.36,181.35 21.2,186.11 			"/>
			<polygon class="st31" points="22.75,175.26 24.52,170.61 25.81,171.13 24.09,175.73 			"/>
			<polygon class="st31" points="26.96,165.16 29.24,160.74 30.4,161.37 28.18,165.74 			"/>
			<polygon class="st31" points="32.24,155.58 34.96,151.42 36.01,152.13 33.35,156.26 			"/>
			<polygon class="st31" points="38.45,146.59 41.54,142.7 42.48,143.47 39.44,147.34 			"/>
			<polygon class="st31" points="45.45,138.2 48.85,134.59 49.68,135.4 46.32,138.99 			"/>
			<polygon class="st31" points="53.12,130.43 56.8,127.1 57.53,127.93 53.89,131.25 			"/>
			<polygon class="st31" points="61.37,123.29 65.31,120.27 65.93,121.11 62.04,124.13 			"/>
			<polygon class="st31" points="70.26,116.8 72.39,115.46 72.9,116.32 70.82,117.65 			"/>
		</g>
		<g>
			<path class="st9" d="M82.26,116.76c0,0-28.21-4.74-28.8-4.26c-0.59,0.48-1.62,8.69-1.62,8.69L82.26,116.76z"/>
			<path class="st11" d="M82.26,116.76c0,0-36.22,2.4-37.45,4.76c-1.23,2.35-3.13,21.16-1.94,21.07S82.26,116.76,82.26,116.76z"/>
		</g>
	</g>
</g>
<g id="DESIGNED_BY_FREEPIK">
</g>
</svg>
